<?xml version="1.0" encoding="utf-8"?>
<!-- Generator: Adobe Illustrator 16.0.0, SVG Export Plug-In . SVG Version: 6.00 Build 0)  -->
<!DOCTYPE svg PUBLIC "-//W3C//DTD SVG 1.1//EN" "http://www.w3.org/Graphics/SVG/1.1/DTD/svg11.dtd">
<svg version="1.1" id="Layer_1" xmlns="http://www.w3.org/2000/svg" xmlns:xlink="http://www.w3.org/1999/xlink" x="0px" y="0px"
	 width="1000px" height="1000px" viewBox="0 0 1000 1000" enable-background="new 0 0 1000 1000" xml:space="preserve">
<g>
	<defs>
		<circle id="SVGID_1_" cx="500" cy="500.001" r="495.076"/>
	</defs>
	<clipPath id="SVGID_2_">
		<use xlink:href="#SVGID_1_"  overflow="visible"/>
	</clipPath>
	<rect x="-259.533" y="-156.69" clip-path="url(#SVGID_2_)" fill="#CBC46D" width="1427.954" height="554.157"/>
	<rect x="-259.533" y="387.869" clip-path="url(#SVGID_2_)" fill="#024D26" width="1427.954" height="791.91"/>
	<g clip-path="url(#SVGID_2_)">
		<path fill="none" d="M305.113,318.239c0,0,33.562,0.3,70.43,14.962c2.997-2.667,5.986-5.121,8.954-7.381
			c-15.872-8.982-34.4-18.517-55.697-28.052c-1.393-0.624-2.774-1.215-4.146-1.773C317.87,301.755,310.938,309.334,305.113,318.239z
			"/>
		<path fill="none" d="M305.113,318.239c-16.162,24.702-23.779,59.569,4.13,93.918c2.644,3.252,5.381,6.358,8.199,9.319
			c-0.021-0.056-0.033-0.087-0.033-0.087c4.792-11.751,9.835-22.346,15.048-31.942C315.335,368.844,301.219,343.445,305.113,318.239
			z"/>
		<path fill="none" d="M45.451,671.854c-7.109,1.789-13.117,3.662-17.742,5.623C32.15,675.627,38.426,673.709,45.451,671.854z"/>
		<path fill="#0C1B12" d="M575.774,834.164c-90.7-7.084-148.861-50.922-488.936-24.092c-35.726,2.818-162.942-14.4-124.407-78.973
			l-13.651,16.134c-60.651,74.91-43.176,158.577-43.176,158.577s63.945,47.074,139.847,49.077
			c148.901,3.929,264.899,121.349,315.595,122.716c104.873,2.839,253.95-82.527,253.95-82.527
			c17.808-63.507,90.65-135.222,101.34-198.913c11.646-69.383-18.362-117.88-18.371-117.89
			C691.456,741.875,648.76,839.866,575.774,834.164z"/>
		<path fill="#0F2D1A" d="M508.061,583.234c-166.529-1.686-267.449,75.768-340.361,71.485
			c-46.859,4.153-93.556,9.926-122.249,17.134c-7.025,1.855-13.301,3.773-17.742,5.623c-0.624,0.264-1.234,0.53-1.809,0.797
			c-17.029,8.007-61.543,49.111-70.167,60.304c-2.249,2.918-4.165,5.723-5.773,8.416c-38.537,64.57,101.153,65.897,136.879,63.079
			c340.074-26.83,398.235,17.008,488.936,24.092c72.985,5.702,115.682-92.289,122.19-155.891
			c1.582-15.436-1.962-28.461-1.729-38.266c0.188-7.941,3.762-15.962,7.061-27.809C637.273,648.438,589.13,584.053,508.061,583.234z
			"/>
		<path fill="#5B612A" d="M757.668,492.937c-107.114,38.292-150.13,55.909-212.67,66.229c-6.89,7.77-34.427,37.6-49.702,47.116
			c-0.003,0.002-19.709-7.14-19.714-7.137c-70.654,45.911-110.84,48.86-158.172,48.86c0,0,102.563-6.134,166.151,13.805
			c39.78,12.472,117.247,39.526,167.722,21.933C753.82,648.005,757.668,492.937,757.668,492.937z"/>
		<path fill="#B25426" d="M45.451,671.854c28.693-7.208,75.389-12.98,122.249-17.134c56.165-4.976,123.904,10.229,149.709,10.229
			c47.332,0,154.279-28.686,224.935-74.599c-45.309,28.226-92.849,25.537-145.746,26.168c-32.791,0.388-79.188-8.687-141.112-21.648
			C152.03,610.669,25.9,678.273,25.9,678.273c0.574-0.267,1.185-0.533,1.809-0.797C32.334,675.516,38.342,673.643,45.451,671.854z"
			/>
		<path fill="#6A2B12" d="M396.598,616.519c52.897-0.631,100.438,2.058,145.746-26.168c0.003-0.003,0.006-0.003,0.008-0.006
			c15.277-9.517,24.275-17.532,31.165-25.302c-14.427,2.382-28.909,3.219-44.014,2.129c-37.603-2.715-62.697-17.053-84.748-33.445
			c-68.592,3.401-118.299-9.421-154.316-29.689c-37.795,50.325-34.954,90.833-34.954,90.833
			C317.409,607.832,363.807,616.906,396.598,616.519z"/>
		<path fill="#0B241C" d="M885.091,405.126c-41.545,24.833-152.897,45.715-312.899,77.607c-11.966,2.386-23.385,4.317-34.284,5.839
			c8.632,9.222,3.185,27.279-3.735,30.636c-7.252,3.515-15.357,5.622-22.886,6.921c-23.951,4.134-46.076,6.582-66.531,7.598
			c22.051,16.393,47.145,30.73,84.748,33.445c15.104,1.09,29.587,0.253,44.014-2.129c62.54-10.322,124.093-49.751,231.208-88.044
			c24.259-8.672,50.852-17.287,80.327-25.489C908.295,445.039,919.846,415.357,885.091,405.126z"/>
		<path fill="#063B3B" d="M817.222,387.918c-79.537-21.194-155.431-48.315-200.943-48.326
			c-26.609-0.006-17.184-43.257-49.399-58.518c-4.373-2.071-8.291-3.805-11.828-5.268c-1.222,0.096-2.471,0.167-3.722,0.24
			c4.827,3.95,7.204,7.56,6.36,12.934c-6.811,43.548-51.303,88.319-95.771,87.887c-3.901-0.036-7.843-3.779-15.813-10.146
			c-11.633-9.291-31.975-24.129-61.608-40.9c-2.967,2.26-5.957,4.714-8.954,7.381c27.059,10.758,55.895,29.246,74.557,61.026
			c0,0-3.62,7.925-14.858,17.082v0.001c-12.291,12.875-30.712,16.893-30.759,16.901c-6.703,2.44-14.319,4.613-22.963,6.341
			c0,0-27.02-18.58-49.062-45.105c-5.213,9.597-10.257,20.191-15.048,31.942c0,0,0.012,0.031,0.033,0.087
			c42.377,44.531,103.211,56.687,147.657,60.044c29.926,2.257,54.471,1.213,54.471,1.213s-0.11,0.039-0.291,0.1l0.912-0.014
			c0,0,2.35,0.199,3.126,0.288c1.607,0.188,2.836,0.159,4.279,0.391c4.633,0.735,7.981,2.585,10.311,5.074
			c10.899-1.521,22.318-3.453,34.284-5.839c160.002-31.893,271.354-52.774,312.899-77.607c14.595-8.724,20.593-17.932,17.035-28.277
			c0,0-1.719-7.169-17.076-15.746C885.02,361.313,878.566,404.266,817.222,387.918z M546.347,377.165
			c40.258-40.697,88.585-9.326,88.585-9.326s-38.409,51.085-78.851,67.829c-32.763,13.565-57.261-23.74-57.261-23.74
			S506.087,417.863,546.347,377.165z"/>
		<path fill="#005356" d="M631.384,247.154c-12.458,10.4-36.979,25.566-76.333,28.652c3.537,1.463,7.455,3.196,11.828,5.268
			c32.216,15.261,22.79,58.512,49.399,58.518c45.513,0.011,121.406,27.132,200.943,48.326
			c61.345,16.348,67.798-26.604,67.828-26.815l0.002-0.003c-7.398-11.47-91.569-37.617-134.811-52.878
			c-43.242-15.263-62.742-31.854-62.742-31.854c-1.693-25.067-46.031-39.244-46.031-39.244
			C641.839,240.661,638.263,241.413,631.384,247.154z"/>
		<path fill="#042D2C" d="M305.113,318.239c-3.894,25.206,10.223,50.604,27.345,71.208c22.042,26.525,49.062,45.105,49.062,45.105
			c8.645-1.728,16.261-3.9,22.963-6.341l-0.002,0.002c-37.141-8.884-40.015-61.49-40.015-61.49s83.078,31.692,70.776,44.586
			c11.238-9.157,14.858-17.082,14.858-17.082c-18.662-31.78-47.498-50.269-74.557-61.026
			C338.675,318.539,305.113,318.239,305.113,318.239L305.113,318.239z"/>
		<path fill="#DED17C" d="M444.755,533.727c20.455-1.016,42.58-3.464,66.531-7.598c7.528-1.299,15.634-3.406,22.886-6.921
			c6.92-3.356,12.367-21.414,3.735-30.636c-2.329-2.489-5.678-4.339-10.311-5.074c-1.443-0.231-2.672-0.203-4.279-0.391
			c-0.776-0.089-3.126-0.288-3.126-0.288l-0.912,0.014c-6.459,2.199-125.609,40.966-236.22-49.658
			c-43.091-35.308-45.945-93.978-42.105-132.755c-30.093,17.959-45.273,48.75-45.273,48.75s1.511,102.389,94.758,154.867
			C326.457,524.306,376.163,537.128,444.755,533.727z M523.622,484.854c17.859-1.028,20.812,19.471,16.744,24.753
			c-21.015,27.273-34.634,8.332-38.713-0.443C498.197,501.736,494.598,486.521,523.622,484.854z"/>
		<path fill="#D7D29B" d="M501.653,509.163c4.079,8.775,17.698,27.717,38.713,0.443c4.067-5.282,1.115-25.781-16.744-24.753
			C494.598,486.521,498.197,501.736,501.653,509.163z"/>
		<path fill="#EDE4A2" d="M465.099,481.521c-44.446-3.357-105.28-15.513-147.657-60.044c-2.818-2.961-5.555-6.067-8.199-9.319
			c-27.909-34.349-20.292-69.216-4.13-93.918l0,0c5.826-8.905,12.757-16.484,19.541-22.244
			c-34.973-14.272-62.897-7.991-83.699,4.425c-3.84,38.777-0.986,97.447,42.105,132.755
			c110.611,90.624,229.761,51.857,236.22,49.658c0.181-0.061,0.291-0.1,0.291-0.1S495.025,483.777,465.099,481.521z"/>
		<path fill="#EFE599" d="M551.329,276.047c1.251-0.073,2.5-0.145,3.722-0.24c39.354-3.086,63.875-18.252,76.333-28.652
			c6.879-5.741,10.455-6.493,10.084-10.03c-0.468-4.434-7.938-7.005-13.458-11.776c-27.939-24.158-79.953-66.356-119.327-71.313
			c-31.915-4.016-46.408,31.579-52.447,55.011c26.208,14.188,48.479,30.766,65.414,45.135
			C534.595,265.164,545.043,270.896,551.329,276.047z"/>
		<path fill="#F5ED9F" d="M240.955,300.42c20.801-12.416,48.726-18.697,83.699-4.425c1.372,0.559,2.753,1.149,4.146,1.773
			c21.297,9.535,39.826,19.069,55.697,28.052c29.633,16.771,49.976,31.609,61.608,40.9c7.971,6.367,11.913,10.11,15.813,10.146
			c44.468,0.433,88.96-44.339,95.771-87.887c0.844-5.374-1.533-8.983-6.36-12.934c-6.286-5.15-16.734-10.883-29.68-21.866
			c-16.936-14.369-39.206-30.946-65.414-45.135c-41.467-22.452-92.803-38.928-148.525-31.215
			c-96.708,13.384-112.029,76.347-112.029,171.339C195.682,349.17,210.862,318.379,240.955,300.42z"/>
		<path fill="#063B3B" d="M435.241,411.311L435.241,411.311c-6.986,5.693-16.917,11.863-30.759,16.901
			C404.529,428.203,422.95,424.186,435.241,411.311z"/>
		<path fill="#302C14" d="M435.241,411.311L435.241,411.311c-6.986,5.693-16.917,11.863-30.759,16.901
			C404.529,428.203,422.95,424.186,435.241,411.311z"/>
		<path fill="#042D2C" d="M364.465,366.724c0,0,2.874,52.606,40.015,61.49l0.002-0.002c13.841-5.038,23.772-11.208,30.759-16.902
			C447.543,398.416,364.465,366.724,364.465,366.724z"/>
		<path fill="#302C14" d="M364.465,366.724c0,0,2.874,52.606,40.015,61.49l0.002-0.002c13.841-5.038,23.772-11.208,30.759-16.902
			C447.543,398.416,364.465,366.724,364.465,366.724z"/>
		<path fill="#0B241C" d="M556.081,435.668c40.441-16.744,78.851-67.829,78.851-67.829s-48.327-31.371-88.585,9.326
			c-40.26,40.698-47.526,34.763-47.526,34.763S523.318,449.233,556.081,435.668z M563.233,376.066
			c8.443-6.736,25.117-11.224,33.366-0.89c8.251,10.338-0.618,24.61-9.056,31.349c-8.442,6.737-24.661,10.562-32.909,0.225
			C546.385,396.412,554.792,382.804,563.233,376.066z"/>
		<path fill="#12110F" d="M587.544,406.525c8.438-6.738,17.307-21.011,9.056-31.349c-8.249-10.334-24.923-5.847-33.366,0.89
			c-8.441,6.737-16.849,20.346-8.599,30.684C562.883,417.087,579.102,413.263,587.544,406.525z"/>
	</g>
	<path clip-path="url(#SVGID_2_)" fill="#333333" d="M580.166,462.547l13.364,3.957c0,0,94.365-174.658,151.304-158.584
		c2.801,0.789,3.339-0.364,7.092,1.241l12.956-42.343l-159.295,53.378l-20.337,70.177L580.166,462.547z"/>
	<path clip-path="url(#SVGID_2_)" fill="#2B2C2B" d="M482.084,438.64l60.262-138.22h87.813l4.773,67.419l-41.401,98.665
		c0,0-36.8,30.689-77.883,9.656C474.565,455.124,482.084,438.64,482.084,438.64z"/>
	<polygon clip-path="url(#SVGID_2_)" fill="#383938" points="542.346,300.42 634.932,367.839 764.882,266.818 686.081,210.045 	"/>
</g>
</svg>
